<svg id="Grupo_1196" data-name="Grupo 1196" xmlns="http://www.w3.org/2000/svg" width="15.998" height="14.892" viewBox="0 0 15.998 14.892">
  <g id="Grupo_1365" data-name="Grupo 1365" transform="translate(0)">
    <path id="União_23" data-name="União 23" d="M2.772,9.664A5.174,5.174,0,0,1,3.185,7.63L6.847,9.75a2.549,2.549,0,0,0,2.311,0L12.813,7.63A5.227,5.227,0,0,1,8,14.892,5.226,5.226,0,0,1,2.772,9.664Zm10.8-.529a.916.916,0,0,1,.566-.84V6.1L9.153,8.99a2.553,2.553,0,0,1-2.312,0L.478,5.3a.707.707,0,0,1,0-1.338L6.841.277a2.553,2.553,0,0,1,2.313,0l6.367,3.688a.707.707,0,0,1,0,1.338l-.668.391v2.6a.913.913,0,1,1-1.279.84Z" fill="#2b2b2b"/>
  </g>
</svg>
