<svg xmlns="http://www.w3.org/2000/svg" width="30" height="30" viewBox="0 0 30 30">
  <path id="Icon_awesome-universal-access" data-name="Icon awesome-universal-access" d="M15.563,2.982A12.581,12.581,0,1,1,2.982,15.563,12.574,12.574,0,0,1,15.563,2.982m0-2.419a15,15,0,1,0,15,15A15,15,0,0,0,15.563.563Zm0,3.387A11.613,11.613,0,1,0,27.175,15.563,11.613,11.613,0,0,0,15.563,3.95Zm0,2.661a2.177,2.177,0,1,1-2.177,2.177A2.177,2.177,0,0,1,15.563,6.611Zm7.121,5.929a43.291,43.291,0,0,1-4.968.956c.051,6.11.744,7.443,1.514,9.413A1.089,1.089,0,0,1,17.2,23.7a17.361,17.361,0,0,1-1.346-4.751H15.27A17.356,17.356,0,0,1,13.923,23.7a1.089,1.089,0,0,1-2.028-.792c.769-1.968,1.463-3.3,1.514-9.413a43.269,43.269,0,0,1-4.968-.956.968.968,0,0,1,.445-1.884c5.848,1.381,7.517,1.378,13.353,0a.968.968,0,1,1,.445,1.884Z" transform="translate(-0.563 -0.563)" fill="#fff"/>
</svg>
