<?xml version="1.0" encoding="UTF-8"?><svg id="uuid-2721e452-8f21-4f05-9864-481c106081fb" xmlns="http://www.w3.org/2000/svg" xmlns:xlink="http://www.w3.org/1999/xlink" viewBox="0 0 233.25 171.9"><defs><linearGradient id="uuid-6fbf0d6a-4af8-4975-b115-ec6937fa3402" x1="-1067.52" y1="513.45" x2="-1065.74" y2="513.7" gradientTransform="translate(-248814.93 -88176.8) rotate(-180) scale(233.25 -171.9)" gradientUnits="userSpaceOnUse"><stop offset="0" stop-color="#a8d6c9"/><stop offset="1" stop-color="#dce3b2"/></linearGradient></defs><path id="uuid-4979d562-f760-4e5c-8e1c-c07d2a9a74c6" d="m174.57,0h58.68v71.96l-24.53,24.53c-1.56,1.56-4.09,1.56-5.66,0,0,0,0,0,0,0l-59.66-59.66c-1.56-1.56-1.56-4.09,0-5.66,0,0,0,0,0,0L174.57,0Zm-68.52,0h50.9l-22.62,22.62c-1.56,1.56-4.09,1.56-5.66,0L106.05,0h0Zm25.45,44.73c1.06,0,2.08.42,2.83,1.17l59.66,59.67c1.56,1.56,1.56,4.09,0,5.66h0s-57.85,57.85-57.85,57.85c-1.56,1.56-4.09,1.56-5.66,0,0,0,0,0,0,0l-59.67-59.66c-1.56-1.56-1.56-4.09,0-5.66l57.85-57.85c.75-.75,1.77-1.17,2.83-1.17ZM57.1,116.45c1.06,0,2.08.42,2.83,1.17l54.28,54.28H0l54.28-54.28c.75-.75,1.77-1.17,2.83-1.17h0Zm147.88,3.48c1.06,0,2.08.42,2.83,1.17l25.43,25.44v25.36h-81.89l50.79-50.79c.75-.75,1.77-1.17,2.83-1.17Z" fill="url(#uuid-6fbf0d6a-4af8-4975-b115-ec6937fa3402)" isolation="isolate" opacity=".26" stroke-width="0"/></svg>